<svg id="SvgjsSvg1008" xmlns="http://www.w3.org/2000/svg" version="1.1" xmlns:xlink="http://www.w3.org/1999/xlink" xmlns:svgjs="http://svgjs.com/svgjs" width="215" height="50" viewBox="0 0 215 50"><title>}</title><desc>Created with Avocode.</desc><defs id="SvgjsDefs1009"></defs><path id="SvgjsPath1010" d="M1266.662 940.382C1269.026 941.4419999999999 1271.066 942.91 1272.78 944.7879999999999C1274.492 946.6639999999999 1275.838 948.8859999999999 1276.816 951.4559999999999C1277.796 954.026 1278.286 956.8179999999999 1278.286 959.8359999999999H1280.732C1280.732 956.8179999999999 1281.2 954.026 1282.1399999999999 951.4559999999999C1283.0759999999998 948.8859999999999 1284.4019999999998 946.6639999999999 1286.116 944.7879999999999C1287.828 942.9099999999999 1289.866 941.4419999999999 1292.234 940.382C1294.598 939.322 1297.2079999999999 938.7919999999999 1300.0639999999999 938.7919999999999C1304.7939999999999 938.7919999999999 1309.4019999999998 939.2199999999999 1313.8899999999999 940.0759999999999C1318.3739999999998 940.9339999999999 1322.822 941.8919999999999 1327.2259999999999 942.9519999999999C1331.6299999999999 944.0119999999998 1336.0959999999998 944.9719999999999 1340.6239999999998 945.8279999999999C1345.1499999999999 946.6839999999999 1349.8199999999997 947.1119999999999 1354.6339999999998 947.1119999999999C1359.0379999999998 947.1119999999999 1363.1559999999997 946.3979999999998 1366.9899999999998 944.9719999999999C1370.8239999999998 943.5419999999999 1374.168 941.5459999999998 1377.024 938.9759999999999C1379.878 936.4059999999998 1382.12 933.3059999999999 1383.752 929.6779999999999C1385.384 926.0459999999999 1386.2 922.0699999999999 1386.2 917.7479999999999V910.896H1385.222C1384.404 910.896 1383.998 911.386 1383.998 912.3639999999999V917.7479999999999C1383.998 921.4979999999999 1383.304 925.006 1381.9180000000001 928.27C1380.5300000000002 931.5319999999999 1378.554 934.366 1375.9840000000002 936.774C1373.4140000000002 939.178 1370.334 941.056 1366.746 942.402C1363.1560000000002 943.748 1359.1180000000002 944.4200000000001 1354.634 944.4200000000001C1349.984 944.4200000000001 1345.396 943.9920000000001 1340.868 943.1360000000001C1336.3419999999999 942.2800000000001 1331.8139999999999 941.32 1327.288 940.2600000000001C1322.76 939.2000000000002 1318.234 938.2420000000001 1313.706 937.3860000000001C1309.1799999999998 936.5280000000001 1304.6319999999998 936.1020000000001 1300.0639999999999 936.1020000000001C1296.964 936.1020000000001 1294.2099999999998 936.652 1291.8059999999998 937.7520000000001C1289.398 938.854 1287.34 940.2600000000001 1285.6259999999997 941.974C1283.9139999999998 943.686 1282.5459999999998 945.6020000000001 1281.5279999999998 947.724C1280.5059999999999 949.844 1279.8339999999998 951.884 1279.5079999999998 953.8420000000001C1279.1 951.8840000000001 1278.3859999999997 949.844 1277.3679999999997 947.724C1276.3459999999998 945.6020000000001 1274.9819999999997 943.686 1273.2679999999998 941.974C1271.5559999999998 940.26 1269.5159999999998 938.854 1267.1519999999998 937.7520000000001C1264.7839999999999 936.652 1262.052 936.1020000000001 1258.9539999999997 936.1020000000001C1254.3839999999998 936.1020000000001 1249.8379999999997 936.5280000000001 1245.3119999999997 937.3860000000001C1240.7839999999997 938.2420000000001 1236.2579999999996 939.2 1231.7299999999996 940.2600000000001C1227.2039999999995 941.32 1222.6759999999995 942.2800000000001 1218.1479999999995 943.1360000000001C1213.6219999999994 943.9920000000001 1209.0339999999994 944.4200000000001 1204.3839999999996 944.4200000000001C1199.8999999999996 944.4200000000001 1195.8619999999996 943.748 1192.2719999999995 942.402C1188.6839999999995 941.056 1185.6039999999996 939.178 1183.0339999999994 936.774C1180.4639999999995 934.366 1178.4879999999994 931.532 1177.0999999999995 928.27C1175.7139999999995 925.006 1175.0199999999995 921.4979999999999 1175.0199999999995 917.7479999999999V912.3639999999999C1175.0199999999995 911.386 1174.6119999999996 910.896 1173.7959999999996 910.896H1172.8179999999995V917.7479999999999C1172.8179999999995 922.0699999999999 1173.6339999999996 926.0459999999999 1175.2639999999994 929.6779999999999C1176.8979999999995 933.3059999999999 1179.1399999999994 936.4059999999998 1181.9939999999995 938.9759999999999C1184.8499999999995 941.5459999999999 1188.1939999999995 943.5419999999999 1192.0259999999994 944.9719999999999C1195.8619999999994 946.3979999999999 1199.9799999999993 947.1119999999999 1204.3839999999993 947.1119999999999C1209.1959999999992 947.1119999999999 1213.8659999999993 946.6839999999999 1218.3939999999993 945.8279999999999C1222.9199999999994 944.9719999999999 1227.3859999999993 944.0119999999998 1231.7919999999992 942.9519999999999C1236.1959999999992 941.8919999999999 1240.6199999999992 940.9339999999999 1245.0659999999991 940.0759999999999C1249.511999999999 939.2199999999999 1254.1399999999992 938.7919999999999 1258.953999999999 938.7919999999999C1261.725999999999 938.7919999999999 1264.293999999999 939.3219999999999 1266.6619999999991 940.382Z " fill="#ffffff" fill-opacity="1" transform="matrix(1,0,0,1,-1172,-910)"></path></svg>